<svg width="126" height="34" viewBox="0 0 126 34" fill="none" xmlns="http://www.w3.org/2000/svg">
<g clip-path="url(#clip0_1_82)">
<path d="M83.8338 0V24.6877C86.8755 24.8294 89.9091 25.0006 92.9343 25.2026V30.4369C88.1363 30.1166 83.3334 29.8735 78.5275 29.7079V0H83.8338ZM126 0.00295652L119.091 16.0406L125.999 33.8877L125.991 33.8909C123.977 33.604 121.961 33.3311 119.943 33.0721L116.064 23.0555L112.148 32.1423C110.292 31.9371 108.433 31.7432 106.571 31.5609L113.306 15.9332L107.138 0.0032029H112.878L116.332 8.9181L120.172 0.00295652H126ZM60.3161 29.4484V0.00271014H75.1285V5.28404H65.6224V12.1284H72.815V17.3627H65.6224V29.4475L60.3161 29.4484ZM40.5024 5.28429V0.00246377H56.9143V5.28404H51.3612V29.5916C49.5901 29.6384 47.8209 29.6931 46.0555 29.7599V5.28429H40.5024ZM22.3623 31.2815V0.00344928H37.1008V5.28454H27.6678V12.4383C29.8349 12.4105 32.9163 12.3792 34.8333 12.3836V17.6184C32.4337 17.5888 29.7249 17.6514 27.6678 17.6719V25.5963C30.8098 25.3484 33.9544 25.1333 37.1008 24.9508V30.1856C32.1823 30.4697 27.2688 30.8352 22.3623 31.282V31.2815ZM11.9533 19.1814L11.953 0.00246377H17.2593V31.7752C15.3196 31.9748 13.3833 32.1874 11.4507 32.4119L5.30603 14.7392V33.1687C3.53391 33.3998 1.76523 33.6405 0 33.8921V0.00295652H5.04271L11.953 19.1814H11.9533ZM97.3119 30.7525V0.00295652H102.618V31.1913C100.852 31.0336 99.0835 30.8883 97.3119 30.7528V30.7525Z" fill="#DB202C"/>
</g>
<defs>
<clipPath id="clip0_1_82">
<rect width="126" height="34" fill="white"/>
</clipPath>
</defs>
</svg>
