<svg width="10" height="6" viewBox="0 0 10 6" fill="none" xmlns="http://www.w3.org/2000/svg">
<path d="M4.11406 4.905L0.175 0.966249C0.120834 0.911874 0.078125 0.851147 0.046875 0.784063C0.015625 0.717188 0 0.645417 0 0.56875C0 0.415625 0.0517709 0.282499 0.155313 0.169374C0.258854 0.0564578 0.395313 0 0.564688 0H8.86281C9.03219 0 9.16865 0.0570827 9.27219 0.171249C9.37573 0.285208 9.4275 0.418229 9.4275 0.570312C9.4275 0.608437 9.36906 0.740416 9.25219 0.966249L5.31344 4.905C5.22302 4.99562 5.12948 5.06177 5.03281 5.10344C4.93615 5.1451 4.82979 5.16594 4.71375 5.16594C4.59771 5.16594 4.49135 5.1451 4.39469 5.10344C4.29802 5.06177 4.20448 4.99562 4.11406 4.905Z" fill="white"/>
</svg>
